# xmcd
#
# Track frame offsets: 
#        150
#        17673
#        36848
#
# Disc length: 722 seconds
#
# Revision: 4
# Processed by: cddbd v1.5.2PL0 Copyright (c) Steve Scherf et al.
# Submitted via: ExactAudioCopy v1.1
#
DISCID=1a02d003
DTITLE=Kae Hanazawa - Sailorstar Song
DYEAR=1996
DGENRE=Anime
TTITLE0=セーラースターソング
TTITLE1=Motto Suteki na Asa ga Kuruyo (Approach the Beautiful Morning 
TTITLE1=Again)
TTITLE2=Sailorstar Song [Original Karaoke]
EXTD=YEAR: 1996
EXTT0=
EXTT1=
EXTT2=
PLAYORDER=
